PathFileType	4	(X/Y/Z)	./trials/Ivanov/data/jump_js_1.trc
DataRate	CameraRate	NumFrames	NumMarkers	Units	OrigDataRate	OrigDataStartFrame	OrigNumFrames
400	400	4	71	mm	400	228	364
Frame#	Time	r_illiac			r_troch			r_asis			l_illiac			l_troch			l_asis			r_psis			sacrum			l_psis			r_thigh1			r_thigh2			r_thigh3			r_thigh4			rl_knee			rm_knee			r_shank1			r_shank2			r_shank3			r_shank4			r_heel			rl_ankle			rm_ankle			r_metatarsal5			r_metatarsal1			l_thigh1			l_thigh2			l_thigh3			l_thigh4			ll_knee			lm_knee			l_shank1			l_shank2			l_shank3			l_shank4			l_heel			ll_ankle			lm_ankle			l_metatarsal5			l_metatarsal1			back_down			neck			back_right			back_left			head_up			head_front			head_left			head_right			r_shoulder			r_humerus1			r_humerus2			r_humerus3			rl_elbow			rm_elbow			r_radius1			r_radius2			r_radius3			rl_wrist			rm_wrist			r_hand			l_shoulder			l_humerus1			l_humerus2			l_humerus3			ll_elbow			lm_elbow			l_radius1			l_radius2			l_radius3			ll_wrist			lm_wrist			l_hand		
		X1	Y1	Z1	X2	Y2	Z2	X3	Y3	Z3	X4	Y4	Z4	X5	Y5	Z5	X6	Y6	Z6	X7	Y7	Z7	X8	Y8	Z8	X9	Y9	Z9	X10	Y10	Z10	X11	Y11	Z11	X12	Y12	Z12	X13	Y13	Z13	X14	Y14	Z14	X15	Y15	Z15	X16	Y16	Z16	X17	Y17	Z17	X18	Y18	Z18	X19	Y19	Z19	X20	Y20	Z20	X21	Y21	Z21	X22	Y22	Z22	X23	Y23	Z23	X24	Y24	Z24	X25	Y25	Z25	X26	Y26	Z26	X27	Y27	Z27	X28	Y28	Z28	X29	Y29	Z29	X30	Y30	Z30	X31	Y31	Z31	X32	Y32	Z32	X33	Y33	Z33	X34	Y34	Z34	X35	Y35	Z35	X36	Y36	Z36	X37	Y37	Z37	X38	Y38	Z38	X39	Y39	Z39	X40	Y40	Z40	X41	Y41	Z41	X42	Y42	Z42	X43	Y43	Z43	X44	Y44	Z44	X45	Y45	Z45	X46	Y46	Z46	X47	Y47	Z47	X48	Y48	Z48	X49	Y49	Z49	X50	Y50	Z50	X51	Y51	Z51	X52	Y52	Z52	X53	Y53	Z53	X54	Y54	Z54	X55	Y55	Z55	X56	Y56	Z56	X57	Y57	Z57	X58	Y58	Z58	X59	Y59	Z59	X60	Y60	Z60	X61	Y61	Z61	X62	Y62	Z62	X63	Y63	Z63	X64	Y64	Z64	X65	Y65	Z65	X66	Y66	Z66	X67	Y67	Z67	X68	Y68	Z68	X69	Y69	Z69	X70	Y70	Z70	X71	Y71	Z71
228	0.5675	-231.459	1192.172	545.513	-286.687	1009.163	573.198	-168.665	1127.255	509.876	-245.951	1183.334	213.902	-288.682	1034.576	197.543	-189.312	1117.318	247.924	-354.718	1177.221	444.324	-355.116	1203.834	384.485	-365.194	1173.795	332.712	-294.059	888.754	572.507	-219.457	903.147	582.999	-205.580	779.181	587.884	-271.670	766.318	577.105	-214.326	600.152	569.437	-220.018	575.292	437.847	-295.523	475.128	583.540	-223.235	470.685	584.915	-239.516	361.349	587.073	-298.868	369.251	584.710	-342.200	186.291	538.228	-300.253	185.668	580.527	-263.364	176.102	492.059	-176.482	41.670	603.445	-165.735	45.518	510.305	-300.097	864.248	199.033	-225.529	876.580	193.145	-208.821	754.644	186.767	-267.665	740.932	190.393	-252.653	593.754	191.305	-227.839	544.855	311.823	-312.589	445.762	175.711	-234.429	444.057	192.102	-247.162	336.944	185.617	-308.733	337.021	176.738	-367.751	165.558	220.166	-310.060	171.320	179.304	-274.692	166.774	274.816	-190.209	39.204	161.268	-171.434	43.093	239.276	-299.321	1337.118	381.325	-188.693	1653.383	373.579	-262.141	1515.271	461.435	-260.401	1508.404	294.430	-54.389	1877.127	365.825	70.008	1787.410	348.236	-44.857	1768.699	268.073	-20.221	1784.890	462.180	-86.132	1653.326	534.990	-106.377	1470.219	632.425	-175.912	1564.095	693.695	-177.325	1460.257	709.878	-205.330	1404.545	742.833	-291.034	1410.762	672.014	-186.694	1303.833	645.292	-234.437	1292.197	766.972	-226.020	1222.828	689.334	-282.860	1181.011	599.439	-230.434	1140.707	666.512	-213.887	1136.155	609.517	-80.440	1668.887	226.732	-81.999	1469.906	151.617	-139.225	1536.237	53.855	-140.384	1434.883	71.996	-178.893	1364.429	26.062	-268.910	1394.758	84.563	-225.125	1328.790	144.554	-161.128	1276.560	55.950	-224.392	1229.166	119.665	-279.977	1164.027	179.208	-262.782	1109.757	107.334	-233.436	1123.463	157.741
229	0.5700	-228.115	1199.218	545.163	-284.126	1016.496	572.416	-165.571	1134.531	508.821	-243.666	1190.682	213.639	-286.953	1041.421	197.565	-187.094	1124.280	247.454	-351.692	1184.126	444.026	-352.289	1210.470	384.118	-362.387	1180.538	332.386	-293.420	895.956	571.929	-218.477	909.283	582.201	-206.453	785.051	586.790	-272.718	773.297	576.082	-218.211	606.650	568.263	-224.712	581.618	436.235	-297.954	480.388	581.933	-225.701	477.437	583.798	-239.923	368.128	586.655	-299.173	374.512	583.792	-337.552	192.857	537.587	-296.221	191.026	580.882	-258.563	181.691	492.133	-174.885	44.057	603.160	-163.040	49.087	510.071	-300.120	871.200	199.189	-225.450	882.437	193.577	-210.564	760.422	187.889	-269.556	747.508	191.341	-257.329	599.936	192.717	-232.442	551.141	314.026	-315.796	451.272	177.429	-237.301	451.108	193.211	-248.071	343.665	186.041	-309.046	342.690	177.726	-363.344	172.315	221.266	-306.413	176.355	179.712	-269.884	172.237	274.821	-189.047	40.893	161.524	-168.777	46.276	239.227	-297.921	1343.512	380.918	-190.466	1660.876	373.813	-263.113	1522.252	461.228	-261.106	1515.530	294.471	-54.745	1884.743	366.201	68.794	1794.083	348.797	-46.150	1776.153	268.568	-21.406	1792.271	462.631	-88.409	1661.315	535.288	-106.726	1478.502	633.185	-177.542	1571.901	693.807	-177.858	1468.071	710.485	-205.463	1411.981	743.444	-291.313	1417.527	672.709	-185.796	1312.166	645.486	-233.322	1299.316	767.075	-224.189	1230.375	689.136	-280.074	1188.532	598.825	-227.561	1148.434	665.889	-210.934	1143.833	608.679	-82.182	1677.057	227.270	-82.287	1478.297	151.805	-139.805	1544.239	54.000	-140.323	1442.961	72.098	-178.372	1372.353	26.048	-268.705	1401.967	84.307	-224.692	1336.313	144.495	-160.072	1284.483	55.821	-223.154	1236.619	119.501	-278.037	1171.043	178.984	-261.131	1116.922	106.863	-230.909	1130.112	156.476
230	0.5725	-224.915	1206.459	544.836	-281.905	1024.026	571.690	-162.476	1141.578	507.700	-241.331	1198.000	213.426	-285.163	1048.270	197.516	-184.675	1131.291	246.867	-348.678	1191.016	443.668	-349.485	1217.208	383.728	-359.606	1187.320	332.066	-292.783	903.146	571.323	-217.583	915.346	581.528	-207.494	791.131	585.786	-273.824	780.195	575.030	-221.914	613.106	567.154	-229.360	588.038	434.753	-300.272	485.729	580.629	-228.099	484.478	582.813	-240.402	374.784	586.192	-299.357	379.844	582.927	-333.170	199.540	536.595	-292.420	196.864	580.982	-253.068	187.997	491.772	-173.131	46.828	602.865	-159.903	52.818	510.069	-300.130	878.285	199.326	-225.522	888.279	193.916	-212.438	765.972	188.872	-271.613	754.023	192.236	-261.855	606.124	194.065	-237.754	557.171	316.026	-318.823	456.771	179.169	-240.306	458.271	194.238	-248.848	350.624	186.447	-309.861	348.395	178.783	-358.975	179.227	222.679	-302.968	181.826	180.271	-264.938	177.937	274.874	-187.975	43.198	161.933	-165.779	49.700	238.963	-296.602	1349.802	380.594	-192.190	1668.271	374.056	-264.021	1529.105	461.018	-261.782	1522.446	294.487	-55.151	1892.229	366.613	67.573	1800.453	349.390	-47.403	1783.488	269.115	-22.989	1799.229	462.854	-90.406	1669.097	535.338	-107.052	1486.517	633.999	-179.166	1579.501	693.925	-178.407	1475.746	711.147	-205.632	1419.282	744.039	-291.587	1424.217	673.408	-184.730	1320.338	645.702	-232.217	1306.026	767.149	-222.302	1237.802	688.864	-277.383	1195.875	598.238	-224.679	1155.999	665.198	-207.905	1151.579	607.775	-83.875	1685.092	227.848	-82.449	1486.548	151.895	-140.388	1552.298	54.131	-140.256	1450.976	72.054	-177.839	1380.111	26.008	-268.503	1409.216	84.160	-224.217	1343.750	144.400	-159.111	1292.328	55.694	-221.883	1244.134	119.283	-276.033	1177.914	178.690	-259.486	1124.064	106.367	-229.009	1137.051	155.909
231	0.5750	-221.884	1213.458	544.609	-279.471	1031.257	570.817	-159.828	1148.515	506.694	-239.054	1205.369	213.221	-283.740	1055.367	197.012	-182.232	1138.122	246.235	-345.740	1197.934	443.322	-346.721	1223.957	383.328	-356.901	1194.087	331.619	-292.227	910.252	570.738	-216.847	921.433	581.018	-208.472	796.984	584.912	-274.940	787.089	574.025	-225.460	619.606	566.175	-233.982	594.370	433.245	-302.077	491.140	578.488	-230.313	491.376	581.959	-240.723	381.489	585.743	-299.710	385.340	581.984	-329.072	206.326	535.406	-288.143	202.400	580.566	-248.576	194.216	491.599	-171.310	49.592	602.825	-156.519	56.537	510.183	-300.954	884.616	200.277	-225.638	894.088	194.102	-214.497	771.394	189.627	-273.761	760.504	193.023	-266.402	612.600	195.288	-242.435	563.315	318.031	-321.896	462.433	180.977	-243.170	465.423	195.238	-249.613	357.596	186.910	-310.820	354.135	180.084	-354.776	186.431	224.371	-299.673	187.477	181.014	-259.952	184.045	274.901	-186.683	45.864	162.176	-162.380	53.139	238.516	-295.265	1356.173	380.225	-193.911	1675.467	374.340	-264.931	1535.887	460.866	-263.132	1529.716	294.859	-55.626	1899.479	367.106	66.325	1806.843	350.026	-48.695	1790.661	269.658	-24.380	1806.285	463.396	-92.572	1676.749	535.625	-107.230	1494.559	634.865	-180.691	1586.839	694.038	-178.874	1483.396	711.787	-205.721	1426.611	744.638	-291.275	1430.658	674.609	-183.534	1328.476	645.796	-231.154	1312.999	767.299	-220.447	1245.171	688.630	-274.802	1203.256	597.630	-221.885	1163.683	664.504	-204.956	1159.238	606.908	-85.482	1692.983	228.354	-82.751	1494.751	151.963	-140.974	1560.166	54.267	-140.233	1458.725	72.134	-177.381	1387.734	25.879	-268.233	1416.435	83.964	-223.699	1351.170	144.298	-158.210	1300.057	55.472	-220.615	1251.440	119.001	-274.193	1184.801	178.421	-257.794	1131.108	105.884	-226.875	1144.050	155.233
